<svg width="148" height="49" viewBox="0 0 148 49" fill="none" xmlns="http://www.w3.org/2000/svg">
<g clip-path="url(#clip0_4762_20040)">
<path fill-rule="evenodd" clip-rule="evenodd" d="M0 41.125H3.47905V14.875H0V41.125Z" fill="#2F4051"/>
<path fill-rule="evenodd" clip-rule="evenodd" d="M16.0721 38.8042C17.9874 38.8042 19.5892 38.1517 20.874 36.8447C22.1603 35.5391 22.8038 33.9219 22.8038 31.9945C22.8038 30.0678 22.1603 28.4506 20.874 27.1443C19.5892 25.838 17.9874 25.1849 16.0721 25.1849C14.1808 25.1849 12.5919 25.838 11.3071 27.1443C10.0209 28.4506 9.37741 30.0678 9.37741 31.9945C9.37741 33.9219 10.0209 35.5391 11.3071 36.8447C12.5919 38.1517 14.1808 38.8042 16.0721 38.8042ZM22.8038 14.875H26.0929V41.5049H22.8038V38.2333C21.1643 40.7447 18.7814 42 15.6552 42C13.0089 42 10.7512 41.0301 8.88593 39.0896C7.02061 37.1491 6.08832 34.7848 6.08832 31.9945C6.08832 29.205 7.02061 26.8399 8.88593 24.8994C10.7512 22.9589 13.0089 21.989 15.6552 21.989C18.7814 21.989 21.1643 23.2451 22.8038 25.7557V14.875Z" fill="#2F4051"/>
<path fill-rule="evenodd" clip-rule="evenodd" d="M37.6428 25.0122C35.8954 25.0122 34.4469 25.516 33.2995 26.5236C32.1499 27.5313 31.4389 28.8765 31.1651 30.56H43.671C43.3958 28.7491 42.6984 27.3716 41.5746 26.4277C40.4515 25.4845 39.14 25.0122 37.6428 25.0122ZM31.1651 33.468C31.4891 35.1765 32.2559 36.5034 33.4672 37.4466C34.6777 38.3912 36.1692 38.8621 37.9423 38.8621C40.4143 38.8621 42.2111 37.9321 43.3349 36.0691L46.105 37.6758C44.2824 40.5588 41.5367 42 37.8678 42C34.8956 42 32.481 41.0495 30.6218 39.1492C28.7613 37.2489 27.8324 34.8455 27.8324 31.9375C27.8324 29.0552 28.7433 26.6576 30.5659 24.7441C32.3871 22.8314 34.7458 21.875 37.6428 21.875C40.3885 21.875 42.6289 22.8636 44.3641 24.8401C46.0992 26.8173 46.9672 29.1958 46.9672 31.9756C46.9672 32.4604 46.9292 32.9583 46.8539 33.468H31.1651Z" fill="#2F4051"/>
<path fill-rule="evenodd" clip-rule="evenodd" d="M56.951 38.7859C58.8662 38.7859 60.4674 38.1298 61.7529 36.8153C63.0391 35.5023 63.6819 33.8759 63.6819 31.9375C63.6819 29.9998 63.0391 28.3734 61.7529 27.0597C60.4674 25.7459 58.8662 25.0891 56.951 25.0891C55.0596 25.0891 53.4708 25.7459 52.186 27.0597C50.8997 28.3734 50.2563 29.9998 50.2563 31.9375C50.2563 33.8759 50.8997 35.5023 52.186 36.8153C53.4708 38.1298 55.0596 38.7859 56.951 38.7859ZM63.6819 22.3722H66.9717V41.502H63.6819V38.2118C62.0431 40.7375 59.6603 42 56.534 42C53.8877 42 51.6301 41.0246 49.7648 39.073C47.8995 37.1214 46.9672 34.7437 46.9672 31.9375C46.9672 29.1321 47.8995 26.7536 49.7648 24.802C51.6301 22.8504 53.8877 21.875 56.534 21.875C59.6603 21.875 62.0431 23.1382 63.6819 25.6632V22.3722Z" fill="#2F4051"/>
<path fill-rule="evenodd" clip-rule="evenodd" d="M74.7996 36.3339C76.0844 37.6039 77.6854 38.2397 79.6014 38.2397C81.5173 38.2397 83.1183 37.6039 84.4045 36.3339C85.6907 35.0639 86.3327 33.482 86.3327 31.5891C86.3327 29.7205 85.6907 28.1516 84.4045 26.8815C83.1183 25.6115 81.5173 24.9757 79.6014 24.9757C77.6854 24.9757 76.0844 25.6115 74.7996 26.8815C73.5134 28.1516 72.87 29.7205 72.87 31.5891C72.87 33.482 73.5134 35.0639 74.7996 36.3339ZM86.3327 22.3606H89.5855V40.257C89.5855 43.0224 88.6395 45.1706 86.7497 46.7023C84.8576 48.2341 82.59 49 79.9415 49C77.8251 49 75.9961 48.6074 74.4587 47.8229C72.9206 47.0384 71.7611 45.9114 70.9801 44.4411L73.8536 42.835C74.8872 44.9274 76.9421 45.9736 80.0183 45.9736C81.9849 45.9736 83.528 45.463 84.6499 44.4411C85.7718 43.42 86.3327 42.0248 86.3327 40.257V37.6039C84.6687 40.0954 82.299 41.3404 79.2235 41.3404C76.5259 41.3404 74.2438 40.3943 72.3785 38.5014C70.5133 36.6085 69.581 34.3044 69.581 31.5891C69.581 28.8745 70.5133 26.5762 72.3785 24.6961C74.2438 22.8154 76.5259 21.875 79.2235 21.875C82.325 21.875 84.6933 23.1079 86.3327 25.5736V22.3606Z" fill="#2F4051"/>
<path fill-rule="evenodd" clip-rule="evenodd" d="M101.135 25.0122C99.3878 25.0122 97.9394 25.516 96.7919 26.5236C95.6431 27.5313 94.9322 28.8765 94.6577 30.56H107.164C106.889 28.7491 106.191 27.3716 105.067 26.4277C103.944 25.4845 102.633 25.0122 101.135 25.0122ZM94.6577 33.468C94.9816 35.1765 95.7485 36.5034 96.9604 37.4466C98.1709 38.3912 99.6623 38.8621 101.435 38.8621C103.906 38.8621 105.704 37.9321 106.827 36.0691L109.598 37.6758C107.775 40.5588 105.03 42 101.36 42C98.3887 42 95.9742 41.0495 94.1151 39.1492C92.2546 37.2489 91.3251 34.8455 91.3251 31.9375C91.3251 29.0552 92.236 26.6576 94.0592 24.7441C95.8803 22.8314 98.2389 21.875 101.135 21.875C103.881 21.875 106.121 22.8636 107.856 24.8401C109.591 26.8173 110.46 29.1958 110.46 31.9756C110.46 32.4604 110.422 32.9583 110.347 33.468H94.6577Z" fill="#2F4051"/>
<path fill-rule="evenodd" clip-rule="evenodd" d="M121.487 21.875C123.675 21.875 125.428 22.5695 126.747 23.9579C128.064 25.3462 128.725 27.2287 128.725 29.6053V41.125H125.478V29.7928C125.478 28.2672 125.069 27.085 124.248 26.2461C123.427 25.4087 122.295 24.9892 120.853 24.9892C119.237 24.9892 117.931 25.4963 116.936 26.5097C115.941 27.5224 115.444 29.0796 115.444 31.1818V41.125H112.199V22.3627H115.444V25.0647C116.762 22.938 118.776 21.875 121.487 21.875Z" fill="#2F4051"/>
<path fill-rule="evenodd" clip-rule="evenodd" d="M133.943 4.375V8.70357L134.264 8.70282L134.267 4.5772L140.902 8.75L147.86 4.375L140.902 0L133.943 4.375Z" fill="#E30072"/>
<path fill-rule="evenodd" clip-rule="evenodd" d="M140.902 8.75V16.625L147.86 12.25V4.375L140.902 8.75Z" fill="#2F4051"/>
<path fill-rule="evenodd" clip-rule="evenodd" d="M126.985 16.625V20.9536L127.306 20.9528L127.308 16.8272L133.943 21L140.902 16.625L133.943 12.25L126.985 16.625Z" fill="#76D7E0"/>
<path fill-rule="evenodd" clip-rule="evenodd" d="M133.943 21V28.875L140.902 24.5V16.625L133.943 21Z" fill="#1B838B"/>
</g>
<defs>
<clipPath id="clip0_4762_20040">
<rect width="147.86" height="49" fill="white"/>
</clipPath>
</defs>
</svg>
